<svg width="152" height="55" viewBox="0 0 152 55" fill="none" xmlns="http://www.w3.org/2000/svg">
<g filter="url(#filter0_d_3_5)">
<path d="M7.75381 1.05117C6.87959 0.886113 5.10491 1.02642 5 2.90813L5.26227 33.4859C5.30598 33.9811 5.52454 34.9715 6.04907 34.9715L22.8342 45.2466C23.2713 45.4529 24.3029 45.7418 24.9324 45.2466L42.3732 28.534C42.6355 28.2864 43.16 27.6179 43.16 26.9247V2.28914C42.9414 1.87648 42.347 1.05117 41.7175 1.05117H7.75381Z" fill="white"/>
<path d="M7.75381 1.05117C6.87959 0.886113 5.10491 1.02642 5 2.90813L5.26227 33.4859C5.30598 33.9811 5.52454 34.9715 6.04907 34.9715L22.8342 45.2466C23.2713 45.4529 24.3029 45.7418 24.9324 45.2466L42.3732 28.534C42.6355 28.2864 43.16 27.6179 43.16 26.9247V2.28914C42.9414 1.87648 42.347 1.05117 41.7175 1.05117H7.75381Z" stroke="#00B682"/>
</g>
<path d="M13.6549 21.6014L23.7522 3.65088H24.9324L28.0796 8.23136C28.2544 9.22173 28.3419 11.3015 27.2928 11.6977L13.6549 21.6014Z" fill="#00B682" stroke="#00B682"/>
<path d="M24.6701 18.3828L30.7023 11.8215L40.4062 25.3154C40.4936 26.0169 40.4062 27.3209 39.3571 26.9247L25.1947 21.6015C24.6264 20.9825 23.7259 19.4722 24.6701 18.3828Z" fill="#00B682" stroke="#00B682"/>
<path d="M9.1963 33.1146L35.6854 27.5437L15.753 24.4488C14.4417 24.325 11.7141 24.424 11.2944 25.8106L8.01609 32.0004C7.92867 32.3718 8.04232 33.1146 9.1963 33.1146Z" fill="#00B682" stroke="#00B682"/>
<g filter="url(#filter1_d_3_5)">
<path d="M54.78 13H59.25L62.67 34H59.37L58.77 29.83V29.89H55.02L54.42 34H51.36L54.78 13ZM58.38 27.04L56.91 16.66H56.85L55.41 27.04H58.38ZM64.271 13H67.571V31H73.001V34H64.271V13ZM74.5835 13H79.4435C81.0835 13 82.3135 13.44 83.1335 14.32C83.9535 15.2 84.3635 16.49 84.3635 18.19V20.26C84.3635 21.96 83.9535 23.25 83.1335 24.13C82.3135 25.01 81.0835 25.45 79.4435 25.45H77.8835V34H74.5835V13ZM79.4435 22.45C79.9835 22.45 80.3835 22.3 80.6435 22C80.9235 21.7 81.0635 21.19 81.0635 20.47V17.98C81.0635 17.26 80.9235 16.75 80.6435 16.45C80.3835 16.15 79.9835 16 79.4435 16H77.8835V22.45H79.4435ZM86.1558 13H89.4558V21.55H92.9958V13H96.2958V34H92.9958V24.55H89.4558V34H86.1558V13ZM101.303 13H105.773L109.193 34H105.893L105.293 29.83V29.89H101.543L100.943 34H97.8834L101.303 13ZM104.903 27.04L103.433 16.66H103.373L101.933 27.04H104.903ZM110.794 13H119.524V16H114.094V21.85H118.354V24.85H114.094V34H110.794V13ZM121.107 13H124.407V31H129.837V34H121.107V13ZM131.419 13H134.719V34H131.419V13ZM140.101 23.26L136.471 13H139.951L142.171 19.78H142.231L144.511 13H147.631L144.001 23.26L147.811 34H144.331L141.931 26.68H141.871L139.411 34H136.291L140.101 23.26Z" fill="#00B682"/>
</g>
<defs>
<filter id="filter0_d_3_5" x="0.499878" y="0.500038" width="47.1601" height="53.5199" filterUnits="userSpaceOnUse" color-interpolation-filters="sRGB">
<feFlood flood-opacity="0" result="BackgroundImageFix"/>
<feColorMatrix in="SourceAlpha" type="matrix" values="0 0 0 0 0 0 0 0 0 0 0 0 0 0 0 0 0 0 127 0" result="hardAlpha"/>
<feOffset dy="4"/>
<feGaussianBlur stdDeviation="2"/>
<feComposite in2="hardAlpha" operator="out"/>
<feColorMatrix type="matrix" values="0 0 0 0 0 0 0 0 0 0 0 0 0 0 0 0 0 0 0.25 0"/>
<feBlend mode="normal" in2="BackgroundImageFix" result="effect1_dropShadow_3_5"/>
<feBlend mode="normal" in="SourceGraphic" in2="effect1_dropShadow_3_5" result="shape"/>
</filter>
<filter id="filter1_d_3_5" x="47.36" y="13" width="104.451" height="29" filterUnits="userSpaceOnUse" color-interpolation-filters="sRGB">
<feFlood flood-opacity="0" result="BackgroundImageFix"/>
<feColorMatrix in="SourceAlpha" type="matrix" values="0 0 0 0 0 0 0 0 0 0 0 0 0 0 0 0 0 0 127 0" result="hardAlpha"/>
<feOffset dy="4"/>
<feGaussianBlur stdDeviation="2"/>
<feComposite in2="hardAlpha" operator="out"/>
<feColorMatrix type="matrix" values="0 0 0 0 0 0 0 0 0 0 0 0 0 0 0 0 0 0 0.25 0"/>
<feBlend mode="normal" in2="BackgroundImageFix" result="effect1_dropShadow_3_5"/>
<feBlend mode="normal" in="SourceGraphic" in2="effect1_dropShadow_3_5" result="shape"/>
</filter>
</defs>
</svg>
